<svg width="54" height="53" viewBox="0 0 54 53" xmlns="http://www.w3.org/2000/svg">
<path d="M27 0.333252C23.4981 0.333252 20.0305 1.02301 16.7951 2.36313C13.5598 3.70326 10.6201 5.66751 8.14386 8.14374C3.14289 13.1447 0.333374 19.9275 0.333374 26.9999C0.333374 38.7866 7.98671 48.7866 18.5734 52.3333C19.9067 52.5466 20.3334 51.7199 20.3334 50.9999V46.4933C12.9467 48.0933 11.3734 42.9199 11.3734 42.9199C10.1467 39.8266 8.41337 38.9999 8.41337 38.9999C5.98671 37.3466 8.60004 37.3999 8.60004 37.3999C11.2667 37.5866 12.68 40.1466 12.68 40.1466C15 44.1999 18.92 42.9999 20.44 42.3599C20.68 40.6266 21.3734 39.4533 22.12 38.7866C16.2 38.1199 9.98671 35.8266 9.98671 25.6666C9.98671 22.7066 11 20.3333 12.7334 18.4399C12.4667 17.7733 11.5334 14.9999 13 11.3999C13 11.3999 15.24 10.6799 20.3334 14.1199C22.44 13.5333 24.7334 13.2399 27 13.2399C29.2667 13.2399 31.56 13.5333 33.6667 14.1199C38.76 10.6799 41 11.3999 41 11.3999C42.4667 14.9999 41.5334 17.7733 41.2667 18.4399C43 20.3333 44.0134 22.7066 44.0134 25.6666C44.0134 35.8533 37.7734 38.0933 31.8267 38.7599C32.7867 39.5866 33.6667 41.2133 33.6667 43.6933V50.9999C33.6667 51.7199 34.0934 52.5733 35.4534 52.3333C46.04 48.7599 53.6667 38.7866 53.6667 26.9999C53.6667 23.498 52.977 20.0304 51.6368 16.795C50.2967 13.5597 48.3325 10.62 45.8562 8.14374C43.38 5.66751 40.4403 3.70326 37.2049 2.36313C33.9696 1.02301 30.502 0.333252 27 0.333252Z" />
</svg>
