<svg width="64" height="64" xmlns="http://www.w3.org/2000/svg" xmlns:xlink="http://www.w3.org/1999/xlink" viewBox="0 0 512 512" xml:space="preserve">
<g>
	<path class="st0" d="M508.72,83.961c-2.053-1.201-4.594-1.127-6.585,0.037L315.9,195.199V89.645c0-2.379-1.29-4.557-3.292-5.684
		c-2.053-1.201-4.594-1.127-6.585,0.037L92.285,211.611V96.843H0v323.036h92.285V300.378L306.023,427.99
		c1.991,1.177,4.532,1.252,6.585,0.05c2.002-1.127,3.292-3.342,3.292-5.671V316.803L502.135,427.99
		c1.991,1.177,4.532,1.252,6.585,0.05c2.004-1.127,3.28-3.342,3.28-5.671V255.988V89.645C512,87.266,510.723,85.088,508.72,83.961z" style="fill: #fff;"></path>
</g>
</svg>
