<svg width="48" height="48" viewBox="0 0 48 48" fill="none" xmlns="http://www.w3.org/2000/svg">
<path d="M40.94 0C42.8124 0 44.6082 0.743819 45.9322 2.06783C47.2562 3.39183 48 5.18757 48 7.06V40.94C48 42.8124 47.2562 44.6082 45.9322 45.9322C44.6082 47.2562 42.8124 48 40.94 48H7.06C5.18757 48 3.39183 47.2562 2.06783 45.9322C0.743819 44.6082 0 42.8124 0 40.94L0 7.06C0 5.18757 0.743819 3.39183 2.06783 2.06783C3.39183 0.743819 5.18757 0 7.06 0L40.94 0ZM33.53 28.94C32.781 28.94 32.0627 29.2375 31.5331 29.7671C31.0035 30.2967 30.706 31.015 30.706 31.764C30.706 32.513 31.0035 33.2313 31.5331 33.7609C32.0627 34.2905 32.781 34.588 33.53 34.588C35.09 34.588 36.35 33.298 36.35 31.738C36.35 30.178 35.09 28.918 33.53 28.918V28.94ZM17.22 34.494C19.62 34.494 21.332 34.41 22.38 34.254C23.432 34.086 24.332 33.81 25.02 33.43C25.92 32.966 26.58 32.302 27.06 31.45C27.54 30.598 27.78 29.62 27.78 28.49C27.78 26.93 27.36 25.6833 26.52 24.75C25.68 23.79 24.54 23.282 23.04 23.162C24.36 22.802 25.352 22.262 25.952 21.542C26.582 20.854 26.882 19.894 26.882 18.694C26.882 17.734 26.676 16.924 26.282 16.174C25.8605 15.4458 25.2504 14.8447 24.516 14.434C23.826 14.044 23.046 13.804 22.086 13.624C21.158 13.476 19.506 13.384 17.138 13.384H11.308V34.356H17.22V34.494ZM18.692 26.124C20.1027 26.124 21.0627 26.2987 21.572 26.648C22.112 27.008 22.352 27.638 22.352 28.508C22.352 29.318 22.082 29.888 21.512 30.218C20.972 30.578 19.982 30.726 18.632 30.726H16.62V26.132H18.72L18.692 26.124ZM36.004 27.536V13.416H31.084V27.536H36H36.004ZM17.85 18.16C19.2673 18.16 20.222 18.32 20.714 18.64C21.2033 18.9587 21.448 19.512 21.448 20.3C21.448 21.0587 21.188 21.5947 20.668 21.908C20.14 22.216 19.172 22.3707 17.764 22.372H16.624V18.16H17.854H17.85Z" fill="#00A4DE"/>
</svg>
